HIERARCHY
ROOT Hips
{
 OFFSET 0.000000 0.000000 0.000000
 CHANNELS 6 Xposition Yposition Zposition Yrotation Xrotation Zrotation
 JOINT Chest
 {
  OFFSET 0.000000 9.585900 0.002600
  CHANNELS 3 Yrotation Xrotation Zrotation
  JOINT Chest2
  {
   OFFSET 0.000000 9.601200 -0.005300
   CHANNELS 3 Yrotation Xrotation Zrotation
   JOINT Chest3
   {
    OFFSET 0.000000 9.561800 0.000000
    CHANNELS 3 Yrotation Xrotation Zrotation
    JOINT Chest4
    {
     OFFSET 0.000000 9.552100 0.000000
     CHANNELS 3 Yrotation Xrotation Zrotation
     JOINT Neck
     {
      OFFSET 0.000000 14.453000 0.000000
      CHANNELS 3 Yrotation Xrotation Zrotation
      JOINT Head
      {
       OFFSET 0.000000 8.936500 -0.011300
       CHANNELS 3 Yrotation Xrotation Zrotation
       End Site
       {
        OFFSET 0.000000 17.073600 -0.006000
       }
      }
     }
     JOINT RightCollar
     {
      OFFSET -2.921100 9.558500 0.000000
      CHANNELS 3 Yrotation Xrotation Zrotation
      JOINT RightShoulder
      {
       OFFSET -13.519700 0.000000 0.000000
       CHANNELS 3 Yrotation Xrotation Zrotation
       JOINT RightElbow
       {
        OFFSET 0.000000 -29.696600 0.000000
        CHANNELS 3 Yrotation Xrotation Zrotation
        JOINT RightWrist
        {
         OFFSET 0.000000 -24.004700 0.000000
         CHANNELS 3 Yrotation Xrotation Zrotation
         End Site
         {
          OFFSET 0.000000 -17.728500 0.000000
         }
        }
       }
      }
     }
     JOINT LeftCollar
     {
      OFFSET 2.921100 9.558500 0.000000
      CHANNELS 3 Yrotation Xrotation Zrotation
      JOINT LeftShoulder
      {
       OFFSET 13.519700 0.000000 0.000000
       CHANNELS 3 Yrotation Xrotation Zrotation
       JOINT LeftElbow
       {
        OFFSET 0.000000 -29.696600 0.000000
        CHANNELS 3 Yrotation Xrotation Zrotation
        JOINT LeftWrist
        {
         OFFSET 0.000000 -24.004700 0.000000
         CHANNELS 3 Yrotation Xrotation Zrotation
         End Site
         {
          OFFSET 0.000000 -17.728500 0.000000
         }
        }
       }
      }
     }
    }
   }
  }
 }
 JOINT RightHip
 {
  OFFSET -7.771700 -0.012900 -0.001300
  CHANNELS 3 Yrotation Xrotation Zrotation
  JOINT RightKnee
  {
   OFFSET 0.000000 -40.869800 0.001200
   CHANNELS 3 Yrotation Xrotation Zrotation
   JOINT RightAnkle
   {
    OFFSET 0.000000 -39.717900 0.002100
    CHANNELS 3 Yrotation Xrotation Zrotation
    JOINT RightToe
    {
     OFFSET 0.000000 -4.965400 11.033500
     CHANNELS 3 Yrotation Xrotation Zrotation
     End Site
     {
      OFFSET 0.000000 -1.423100 5.872300
     }
    }
   }
  }
 }
 JOINT LeftHip
 {
  OFFSET 7.771700 -0.012900 -0.001300
  CHANNELS 3 Yrotation Xrotation Zrotation
  JOINT LeftKnee
  {
   OFFSET 0.000000 -40.869800 0.001200
   CHANNELS 3 Yrotation Xrotation Zrotation
   JOINT LeftAnkle
   {
    OFFSET 0.000000 -39.717900 0.002100
    CHANNELS 3 Yrotation Xrotation Zrotation
    JOINT LeftToe
    {
     OFFSET 0.000000 -4.965400 11.033500
     CHANNELS 3 Yrotation Xrotation Zrotation
     End Site
     {
      OFFSET 0.000000 -1.423100 5.872300
     }
    }
   }
  }
 }
}
MOTION
Frames: 10
Frame Time: 0.008333
-13.042451 43.670211 25.423439 176.336953 -26.325585 -1.334707 -0.555510 19.614386 2.321633 -0.089259 2.369565 0.341373 -0.118625 3.898335 0.598707 -0.265820 16.804264 2.514578 -2.031239 13.577092 -1.728652 -1.736626 -11.459876 -1.334530 11.567714 1.251089 -3.538580 -11.682021 -7.438420 -5.277871 -176.101870 -74.315745 -167.397394 -2.346292 3.087840 -29.850278 -17.023413 -2.171270 -6.724200 16.288396 -3.359475 6.212913 157.790607 -68.176662 -178.789405 13.715276 20.480217 24.030653 -4.537494 -64.326021 10.868236 -161.707802 67.692642 -159.071795 -10.539631 -25.604435 8.092172 0.503871 -0.619689 0.236039 3.133994 -48.376315 1.565133 -178.982303 56.487016 -179.693773 -4.752162 -42.832017 4.335740 -0.000707 0.055932 0.037295
-13.043696 43.669992 25.423970 176.352704 -26.306931 -1.341442 -0.563461 19.599757 2.336825 -0.082276 2.368288 0.356734 -0.127639 3.895313 0.585300 -0.270888 16.798583 2.514786 -2.043485 13.574596 -1.738218 -1.773054 -11.503386 -1.315402 11.567740 1.258630 -3.541887 -11.700275 -7.467901 -5.348914 -176.174770 -74.358604 -167.353149 -2.337104 3.111548 -29.874722 -17.016480 -2.155282 -6.727208 16.280338 -3.370843 6.151158 157.824956 -68.152092 -178.794374 13.731459 20.471782 24.053282 -4.552917 -64.345138 10.877807 -161.724973 67.682978 -159.093437 -10.528884 -25.635126 8.089293 0.514085 -0.641843 0.240499 3.131760 -48.397609 1.566001 -178.977707 56.494055 -179.694676 -4.766445 -42.827070 4.351867 0.002946 0.059137 0.028082
-13.045960 43.672266 25.421232 176.365107 -26.313099 -1.342763 -0.569515 19.613040 2.347952 -0.085537 2.363051 0.349971 -0.125862 3.895473 0.589613 -0.277411 16.794756 2.508707 -2.057614 13.547636 -1.726180 -1.796610 -11.527814 -1.311095 11.572463 1.258865 -3.538194 -11.712398 -7.485806 -5.408111 -176.220661 -74.386486 -167.332853 -2.314096 3.137108 -29.904747 -17.005492 -2.139304 -6.719035 16.268932 -3.381245 6.118019 157.824766 -68.137215 -178.777629 13.767075 20.429893 24.091115 -4.543888 -64.338869 10.866458 -161.759553 67.671745 -159.118888 -10.562120 -25.666936 8.096362 0.508795 -0.689351 0.242206 3.139623 -48.387905 1.559734 -178.975225 56.503210 -179.696263 -4.783422 -42.821351 4.373014 0.003660 0.060297 0.027659
-13.049457 43.674397 25.420179 176.370497 -26.310307 -1.337370 -0.572860 19.617335 2.351961 -0.085798 2.359003 0.346366 -0.128234 3.893451 0.586350 -0.270288 16.794870 2.524740 -2.081813 13.520355 -1.726592 -1.817166 -11.555159 -1.306824 11.571997 1.254922 -3.549402 -11.723310 -7.489036 -5.440220 -176.204120 -74.396501 -167.358576 -2.255630 3.173707 -29.943401 -17.009290 -2.137478 -6.727792 16.272850 -3.382241 6.046356 157.856614 -68.109418 -178.782834 13.769623 20.416220 24.097982 -4.534217 -64.339176 10.856087 -161.772087 67.663859 -159.129033 -10.592050 -25.708134 8.110182 0.515929 -0.696436 0.239751 3.160483 -48.387292 1.538962 -178.981790 56.514291 -179.702867 -4.792956 -42.816947 4.384676 0.004987 0.061544 0.024722
-13.053618 43.675653 25.422045 176.370907 -26.289954 -1.329929 -0.567037 19.607038 2.362739 -0.090418 2.359051 0.346830 -0.127922 3.892926 0.588647 -0.243418 16.806251 2.565755 -2.130624 13.457171 -1.733154 -1.832699 -11.567627 -1.327663 11.549856 1.235099 -3.598834 -11.737835 -7.489118 -5.470428 -176.616872 -74.420645 -166.998439 -2.305912 3.170069 -29.948261 -17.040634 -2.164659 -6.760816 16.266371 -3.377937 5.924618 158.009478 -68.101747 -178.911100 13.775273 20.397934 24.103819 -4.532493 -64.356089 10.855202 -161.767382 67.659593 -159.127963 -10.608431 -25.753520 8.117974 0.516756 -0.705964 0.239925 3.185171 -48.407024 1.515177 -178.991689 56.525854 -179.712223 -4.800435 -42.812666 4.390072 0.006779 0.063624 0.022039
-13.057923 43.677455 25.423638 176.359872 -26.273152 -1.319390 -0.550007 19.603188 2.379870 -0.084696 2.356074 0.343998 -0.122439 3.908438 0.611334 -0.265372 16.786891 2.542044 -2.140079 13.434331 -1.722637 -1.847091 -11.589914 -1.332780 11.554756 1.224810 -3.610146 -11.756238 -7.489183 -5.512947 -176.758799 -74.431605 -166.887119 -2.301604 3.189277 -29.960243 -17.055406 -2.156366 -6.753286 16.266868 -3.386350 5.855540 158.018788 -68.086219 -178.895498 13.793766 20.368879 24.113975 -4.524585 -64.369742 10.856625 -161.759634 67.658744 -159.124785 -10.619124 -25.790813 8.125102 0.529580 -0.709953 0.239506 3.217258 -48.422626 1.504231 -178.978963 56.536295 -179.707335 -4.814813 -42.802887 4.413441 0.007587 0.064088 0.023766
-13.064178 43.680502 25.423026 176.358585 -26.270957 -1.303320 -0.551847 19.612580 2.379658 -0.081726 2.370394 0.363216 -0.126376 3.898490 0.595910 -0.268050 16.779225 2.537770 -2.145450 13.412938 -1.711798 -1.850111 -11.590941 -1.350952 11.563252 1.216843 -3.621575 -11.768656 -7.493885 -5.552319 -176.706857 -74.438367 -166.953602 -2.247202 3.225406 -29.975649 -17.059949 -2.151887 -6.750182 16.259126 -3.395304 5.806208 157.987928 -68.074797 -178.839832 13.809753 20.338816 24.119246 -4.494633 -64.370031 10.824149 -161.743817 67.651001 -159.111854 -10.624480 -25.820586 8.135444 0.551108 -0.724115 0.238159 3.255412 -48.420595 1.466054 -178.981189 56.549196 -179.710136 -4.821890 -42.792842 4.427854 0.005874 0.061798 0.021736
-13.068515 43.683015 25.424049 176.350110 -26.259647 -1.298256 -0.543091 19.613925 2.394872 -0.081861 2.372282 0.364565 -0.126567 3.901320 0.598159 -0.265265 16.783360 2.545073 -2.154947 13.381248 -1.710517 -1.865958 -11.630081 -1.348579 11.569681 1.201157 -3.645686 -11.778754 -7.501341 -5.585434 -176.880257 -74.449901 -166.825641 -2.252707 3.245437 -29.956874 -17.066192 -2.158654 -6.750408 16.241005 -3.401821 5.725311 158.062493 -68.079065 -178.894238 13.835481 20.308977 24.126254 -4.508345 -64.378243 10.829199 -161.662578 67.637662 -159.040734 -10.556577 -25.835407 8.110013 0.520503 -0.752353 0.243526 3.272737 -48.430357 1.454382 -178.981567 56.559076 -179.714070 -4.823124 -42.785851 4.433957 0.005985 0.060636 0.019703
-13.078238 43.685121 25.425474 176.337410 -26.243341 -1.260719 -0.543120 19.612067 2.378726 -0.081965 2.373997 0.365838 -0.127112 3.893739 0.589574 -0.255826 16.814215 2.585514 -2.169570 13.334469 -1.730727 -1.877137 -11.699856 -1.323372 11.570919 1.172345 -3.695966 -11.783123 -7.512478 -5.615933 -177.029679 -74.465177 -166.718509 -2.266417 3.266262 -29.932784 -17.073892 -2.188259 -6.769069 16.212124 -3.405178 5.624462 158.260580 -68.095619 -179.076001 13.882536 20.281121 24.141442 -4.459024 -64.398766 10.768286 -161.643529 67.633171 -159.031335 -10.550180 -25.832067 8.109002 0.515061 -0.777420 0.240544 3.329447 -48.441426 1.389407 -178.990762 56.575371 -179.729415 -4.825614 -42.774280 4.441638 0.007483 0.059679 0.018282
-13.085042 43.687681 25.426317 176.329223 -26.232080 -1.242874 -0.541351 19.608660 2.372674 -0.081964 2.374812 0.366472 -0.127511 3.894774 0.590788 -0.257624 16.810217 2.581529 -2.168346 13.326964 -1.723979 -1.881714 -11.725281 -1.307875 11.574138 1.168119 -3.702270 -11.770517 -7.520403 -5.641985 -177.108305 -74.476428 -166.682043 -2.278222 3.285869 -29.909487 -17.072896 -2.173897 -6.758098 16.199677 -3.416156 5.578325 158.216241 -68.092439 -179.007102 13.871397 20.277303 24.127185 -4.425517 -64.411075 10.736650 -161.593856 67.629681 -158.984113 -10.546760 -25.818523 8.101549 0.528724 -0.792974 0.251681 3.362833 -48.449912 1.354137 -178.999777 56.587488 -179.738745 -4.836581 -42.764381 4.445488 0.010367 0.058294 0.022849
